name rise36.2859peak64.2979fall75.1499.mot
datacolumns 19
datarows 33
range 5.82831200000000 5.88164200000000
endheader
time	ground_force1_vx	ground_force1_vy	ground_force1_vz	ground_force1_px	ground_force1_py	ground_force1_pz	ground_force2_vx	ground_force2_vy	ground_force2_vz	ground_force2_px	ground_force2_py	ground_force2_pz	ground_torque1_x	ground_torque1_y	ground_torque1_z	ground_torque2_x	ground_torque2_y	ground_torque2_z	
5.82831200000000	14.80537600000000	695.64103499999999	38.50245500000000	0.33171500000000	0.00000000000000	0.08683700000000	0.00000000000000	0.00000000000000	0.00000000000000	0.00000000000000	0.00000000000000	0.00000000000000	0.00000000000000	23.41288400000000	0.00000000000000	0.00000000000000	0.00000000000000	0.00000000000000	
5.82997900000000	14.32395100000000	696.90278599999999	38.56734600000000	0.33024800000000	0.00000000000000	0.08687800000000	0.00000000000000	0.00000000000000	0.00000000000000	0.00000000000000	0.00000000000000	0.00000000000000	0.00000000000000	23.48817300000000	0.00000000000000	0.00000000000000	0.00000000000000	0.00000000000000	
5.83164000000000	13.82938700000000	698.18806099999995	38.63718500000000	0.32878600000000	0.00000000000000	0.08691900000000	0.00000000000000	0.00000000000000	0.00000000000000	0.00000000000000	0.00000000000000	0.00000000000000	0.00000000000000	23.56875200000000	0.00000000000000	0.00000000000000	0.00000000000000	0.00000000000000	
5.83330900000000	13.32169800000000	699.49525100000005	38.71180000000000	0.32733000000000	0.00000000000000	0.08695800000000	0.00000000000000	0.00000000000000	0.00000000000000	0.00000000000000	0.00000000000000	0.00000000000000	0.00000000000000	23.65449900000000	0.00000000000000	0.00000000000000	0.00000000000000	0.00000000000000	
5.83497500000000	12.80094200000000	700.82286899999997	38.79102700000000	0.32588200000000	0.00000000000000	0.08699700000000	0.00000000000000	0.00000000000000	0.00000000000000	0.00000000000000	0.00000000000000	0.00000000000000	0.00000000000000	23.74529100000000	0.00000000000000	0.00000000000000	0.00000000000000	0.00000000000000	
5.83664100000000	12.26722000000000	702.16955099999996	38.87470500000000	0.32444300000000	0.00000000000000	0.08703500000000	0.00000000000000	0.00000000000000	0.00000000000000	0.00000000000000	0.00000000000000	0.00000000000000	0.00000000000000	23.84100400000000	0.00000000000000	0.00000000000000	0.00000000000000	0.00000000000000	
5.83831000000000	11.72067200000000	703.53406099999995	38.96268100000000	0.32301300000000	0.00000000000000	0.08707200000000	0.00000000000000	0.00000000000000	0.00000000000000	0.00000000000000	0.00000000000000	0.00000000000000	0.00000000000000	23.94151200000000	0.00000000000000	0.00000000000000	0.00000000000000	0.00000000000000	
5.83998100000000	11.16148000000000	704.91528900000003	39.05480700000000	0.32159400000000	0.00000000000000	0.08710800000000	0.00000000000000	0.00000000000000	0.00000000000000	0.00000000000000	0.00000000000000	0.00000000000000	0.00000000000000	24.04668800000000	0.00000000000000	0.00000000000000	0.00000000000000	0.00000000000000	
5.84164600000000	10.58986200000000	706.31224799999995	39.15094100000000	0.32018800000000	0.00000000000000	0.08714300000000	0.00000000000000	0.00000000000000	0.00000000000000	0.00000000000000	0.00000000000000	0.00000000000000	0.00000000000000	24.15640400000000	0.00000000000000	0.00000000000000	0.00000000000000	0.00000000000000	
5.84332300000000	10.00607700000000	707.72407899999996	39.25095000000000	0.31879500000000	0.00000000000000	0.08717600000000	0.00000000000000	0.00000000000000	0.00000000000000	0.00000000000000	0.00000000000000	0.00000000000000	0.00000000000000	24.27053000000000	0.00000000000000	0.00000000000000	0.00000000000000	0.00000000000000	
5.84499300000000	9.41041700000000	709.15004199999998	39.35470400000000	0.31741600000000	0.00000000000000	0.08720900000000	0.00000000000000	0.00000000000000	0.00000000000000	0.00000000000000	0.00000000000000	0.00000000000000	0.00000000000000	24.38893600000000	0.00000000000000	0.00000000000000	0.00000000000000	0.00000000000000	
5.84664400000000	8.80320900000000	710.58951999999999	39.46208400000000	0.31605200000000	0.00000000000000	0.08724000000000	0.00000000000000	0.00000000000000	0.00000000000000	0.00000000000000	0.00000000000000	0.00000000000000	0.00000000000000	24.51149100000000	0.00000000000000	0.00000000000000	0.00000000000000	0.00000000000000	
5.84831300000000	8.18481400000000	712.04201000000000	39.57297600000000	0.31470500000000	0.00000000000000	0.08727100000000	0.00000000000000	0.00000000000000	0.00000000000000	0.00000000000000	0.00000000000000	0.00000000000000	0.00000000000000	24.63806200000000	0.00000000000000	0.00000000000000	0.00000000000000	0.00000000000000	
5.84997500000000	7.55562300000000	713.50711999999999	39.68727600000000	0.31337500000000	0.00000000000000	0.08729900000000	0.00000000000000	0.00000000000000	0.00000000000000	0.00000000000000	0.00000000000000	0.00000000000000	0.00000000000000	24.76851500000000	0.00000000000000	0.00000000000000	0.00000000000000	0.00000000000000	
5.85164700000000	6.91605800000000	714.98456699999997	39.80488700000000	0.31206300000000	0.00000000000000	0.08732700000000	0.00000000000000	0.00000000000000	0.00000000000000	0.00000000000000	0.00000000000000	0.00000000000000	0.00000000000000	24.90271900000000	0.00000000000000	0.00000000000000	0.00000000000000	0.00000000000000	
5.85331400000000	6.26656600000000	716.47416799999996	39.92571900000000	0.31077000000000	0.00000000000000	0.08735300000000	0.00000000000000	0.00000000000000	0.00000000000000	0.00000000000000	0.00000000000000	0.00000000000000	0.00000000000000	25.04053700000000	0.00000000000000	0.00000000000000	0.00000000000000	0.00000000000000	
5.85497700000000	5.60762200000000	717.97583399999996	40.04969200000000	0.30949700000000	0.00000000000000	0.08737900000000	0.00000000000000	0.00000000000000	0.00000000000000	0.00000000000000	0.00000000000000	0.00000000000000	0.00000000000000	25.18183500000000	0.00000000000000	0.00000000000000	0.00000000000000	0.00000000000000	
5.85664900000000	4.93972400000000	719.48956799999996	40.17673500000000	0.30824500000000	0.00000000000000	0.08740200000000	0.00000000000000	0.00000000000000	0.00000000000000	0.00000000000000	0.00000000000000	0.00000000000000	0.00000000000000	25.32647900000000	0.00000000000000	0.00000000000000	0.00000000000000	0.00000000000000	
5.85831400000000	4.26339100000000	721.01545099999998	40.30678600000000	0.30701400000000	0.00000000000000	0.08742500000000	0.00000000000000	0.00000000000000	0.00000000000000	0.00000000000000	0.00000000000000	0.00000000000000	0.00000000000000	25.47433400000000	0.00000000000000	0.00000000000000	0.00000000000000	0.00000000000000	
5.85997800000000	3.57916500000000	722.55363699999998	40.43978900000000	0.30580400000000	0.00000000000000	0.08744600000000	0.00000000000000	0.00000000000000	0.00000000000000	0.00000000000000	0.00000000000000	0.00000000000000	0.00000000000000	25.62526300000000	0.00000000000000	0.00000000000000	0.00000000000000	0.00000000000000	
5.86164400000000	2.88760100000000	724.10434699999996	40.57570300000000	0.30461700000000	0.00000000000000	0.08746600000000	0.00000000000000	0.00000000000000	0.00000000000000	0.00000000000000	0.00000000000000	0.00000000000000	0.00000000000000	25.77913300000000	0.00000000000000	0.00000000000000	0.00000000000000	0.00000000000000	
5.86331500000000	2.18927500000000	725.66785800000002	40.71449100000000	0.30345300000000	0.00000000000000	0.08748500000000	0.00000000000000	0.00000000000000	0.00000000000000	0.00000000000000	0.00000000000000	0.00000000000000	0.00000000000000	25.93580700000000	0.00000000000000	0.00000000000000	0.00000000000000	0.00000000000000	
5.86498200000000	1.48477300000000	727.24449600000003	40.85612900000000	0.30231200000000	0.00000000000000	0.08750300000000	0.00000000000000	0.00000000000000	0.00000000000000	0.00000000000000	0.00000000000000	0.00000000000000	0.00000000000000	26.09515000000000	0.00000000000000	0.00000000000000	0.00000000000000	0.00000000000000	
5.86664700000000	0.77469600000000	728.83462199999997	41.00060100000000	0.30119500000000	0.00000000000000	0.08751900000000	0.00000000000000	0.00000000000000	0.00000000000000	0.00000000000000	0.00000000000000	0.00000000000000	0.00000000000000	26.25702800000000	0.00000000000000	0.00000000000000	0.00000000000000	0.00000000000000	
5.86831200000000	0.05965300000000	730.43863099999999	41.14790100000000	0.30010200000000	0.00000000000000	0.08753500000000	0.00000000000000	0.00000000000000	0.00000000000000	0.00000000000000	0.00000000000000	0.00000000000000	0.00000000000000	26.42130600000000	0.00000000000000	0.00000000000000	0.00000000000000	0.00000000000000	
5.86998800000000	-0.65973900000000	732.05693399999996	41.29803300000000	0.29903400000000	0.00000000000000	0.08754900000000	0.00000000000000	0.00000000000000	0.00000000000000	0.00000000000000	0.00000000000000	0.00000000000000	0.00000000000000	26.58785000000000	0.00000000000000	0.00000000000000	0.00000000000000	0.00000000000000	
5.87164400000000	-1.38285600000000	733.68995399999994	41.45100900000000	0.29798900000000	0.00000000000000	0.08756200000000	0.00000000000000	0.00000000000000	0.00000000000000	0.00000000000000	0.00000000000000	0.00000000000000	0.00000000000000	26.75652500000000	0.00000000000000	0.00000000000000	0.00000000000000	0.00000000000000	
5.87331000000000	-2.10907100000000	735.33811300000002	41.60685300000000	0.29697000000000	0.00000000000000	0.08757500000000	0.00000000000000	0.00000000000000	0.00000000000000	0.00000000000000	0.00000000000000	0.00000000000000	0.00000000000000	26.92719800000000	0.00000000000000	0.00000000000000	0.00000000000000	0.00000000000000	
5.87497500000000	-2.83775400000000	737.00182500000005	41.76559400000000	0.29597500000000	0.00000000000000	0.08758600000000	0.00000000000000	0.00000000000000	0.00000000000000	0.00000000000000	0.00000000000000	0.00000000000000	0.00000000000000	27.09973600000000	0.00000000000000	0.00000000000000	0.00000000000000	0.00000000000000	
5.87664900000000	-3.56827600000000	738.68148299999996	41.92727200000000	0.29500400000000	0.00000000000000	0.08759600000000	0.00000000000000	0.00000000000000	0.00000000000000	0.00000000000000	0.00000000000000	0.00000000000000	0.00000000000000	27.27400500000000	0.00000000000000	0.00000000000000	0.00000000000000	0.00000000000000	
5.87831500000000	-4.30000900000000	740.37745199999995	42.09193500000000	0.29405800000000	0.00000000000000	0.08760600000000	0.00000000000000	0.00000000000000	0.00000000000000	0.00000000000000	0.00000000000000	0.00000000000000	0.00000000000000	27.44987300000000	0.00000000000000	0.00000000000000	0.00000000000000	0.00000000000000	
5.87998100000000	-5.03232800000000	742.09005999999999	42.25963900000000	0.29313700000000	0.00000000000000	0.08761500000000	0.00000000000000	0.00000000000000	0.00000000000000	0.00000000000000	0.00000000000000	0.00000000000000	0.00000000000000	27.62720800000000	0.00000000000000	0.00000000000000	0.00000000000000	0.00000000000000	
5.88164200000000	-5.76461400000000	743.81958599999996	42.43044500000000	0.29223900000000	0.00000000000000	0.08762300000000	0.00000000000000	0.00000000000000	0.00000000000000	0.00000000000000	0.00000000000000	0.00000000000000	0.00000000000000	27.80587600000000	0.00000000000000	0.00000000000000	0.00000000000000	0.00000000000000	
